<svg width="18" height="19" viewBox="0 0 18 19" fill="none" xmlns="http://www.w3.org/2000/svg">
  <path
    d="M1.42105 2.94444V2.5C1.30938 2.5 1.20229 2.54683 1.12332 2.63017C1.04436 2.71352 1 2.82657 1 2.94444H1.42105ZM16.5789 2.94444H17C17 2.82657 16.9556 2.71352 16.8767 2.63017C16.7977 2.54683 16.6906 2.5 16.5789 2.5V2.94444ZM1.42105 3.38889H16.5789V2.5H1.42105V3.38889ZM16.1579 2.94444V13.6111H17V2.94444H16.1579ZM14.8947 14.9444H3.10526V15.8333H14.8947V14.9444ZM1.84211 13.6111V2.94444H1V13.6111H1.84211ZM3.10526 14.9444C2.77025 14.9444 2.44896 14.804 2.21208 14.5539C1.97519 14.3039 1.84211 13.9647 1.84211 13.6111H1C1 14.2005 1.2218 14.7657 1.61662 15.1825C2.01143 15.5992 2.54691 15.8333 3.10526 15.8333V14.9444ZM16.1579 13.6111C16.1579 13.9647 16.0248 14.3039 15.7879 14.5539C15.551 14.804 15.2297 14.9444 14.8947 14.9444V15.8333C15.4531 15.8333 15.9886 15.5992 16.3834 15.1825C16.7782 14.7657 17 14.2005 17 13.6111H16.1579Z"
    fill="white" fill-opacity="0.3" />
  <path d="M1.42188 2.94434L9.00082 10.9443L16.5798 2.94434" stroke="white" stroke-opacity="0.3" stroke-width="0.631579"
    stroke-linecap="round" stroke-linejoin="round" />
</svg>